<svg width="34" height="36" viewBox="0 0 54 56" fill="none" xmlns="http://www.w3.org/2000/svg">
<path d="M52.7287 38.7063C52.2898 37.9658 51.0555 36.8138 47.9835 37.3623C46.283 37.664 44.555 37.8012 42.827 37.7189C36.4361 37.4446 30.6487 34.5098 26.6167 29.9841C23.051 26.0069 20.8568 20.8229 20.8294 15.2274C20.8294 12.1006 21.4327 9.08345 22.667 6.23088C23.8738 3.46059 23.0236 2.00688 22.4201 1.40345C21.7893 0.772596 20.3082 -0.105117 17.4008 1.10174C6.18252 5.81945 -0.756907 17.0652 0.0659496 29.1063C0.888806 40.4343 8.84308 50.1166 19.3756 53.7646C21.899 54.6423 24.5596 55.1635 27.3024 55.2732C27.7413 55.3006 28.1801 55.328 28.619 55.328C37.8075 55.328 46.4201 50.9943 51.851 43.616C53.6887 41.0652 53.195 39.4469 52.7287 38.7063Z" fill="#292D32"/>
</svg>
